<svg height="50" viewBox="0 0 189 50" width="189" xmlns="http://www.w3.org/2000/svg"><g fill="none" fill-rule="evenodd"><path d="m69.976 26.36h-6.48c.192001 1.4720074.591997 2.7839942 1.2 3.936s1.3919952 2.127996 2.352 2.928 2.0639938 1.399998 3.312 1.8 2.5919928.6 4.032.6c2.400012 0 4.4319917-.5199948 6.096-1.56s3.0239947-2.3999916 4.08-4.08 1.8239976-3.5599896 2.304-5.64.72-4.1599896.72-6.24c0-2.1120106-.1919981-4.2079896-.576-6.288s-1.071995-3.94399176-2.064-5.592-2.3119918-2.97599496-3.96-3.984-3.7519872-1.512-6.312-1.512c-1.7600088 0-3.3599928.3199968-4.8.96s-2.6799948 1.51199448-3.72 2.616-1.8399972 2.39999256-2.4 3.888-.84 3.0959914-.84 4.824c0 1.3440067.2079979 2.6719934.624 3.984s1.0719955 2.4799949 1.968 3.504c.9600048 1.0560053 2.1279931 1.8959969 3.504 2.52s2.7839928.936 4.224.936c1.6320082 0 3.0719938-.2879971 4.32-.864s2.3359954-1.5359933 3.264-2.88l.096.096c-.0640003.9280046-.199999 1.9839941-.408 3.168s-.5519976 2.2959948-1.032 3.336-1.119996 1.9199964-1.92 2.64-1.8239938 1.08-3.072 1.08c-1.1840059 0-2.175996-.4159958-2.976-1.248s-1.3119989-1.8079944-1.536-2.928zm4.896-7.536c-.8640043 0-1.6239967-.1839982-2.28-.552s-1.1919979-.847997-1.608-1.44-.727999-1.2639962-.936-2.016-.312-1.527996-.312-2.328c0-.7680038.1119989-1.5199963.336-2.256.2240011-.73600368.5599978-1.39199712 1.008-1.968s.9919968-1.03999824 1.632-1.392 1.359996-.528 2.16-.528c.8640043 0 1.6319966.17599824 2.304.528s1.2399977.82399704 1.704 1.416.8159988 1.26399624 1.056 2.016c.2400012.7520038.36 1.5119962.36 2.28 0 .8320042-.1119989 1.6239962-.336 2.376s-.5599978 1.4159971-1.008 1.992-1.0079966 1.0319983-1.68 1.368-1.4719954.504-2.4.504zm13.512-8.64v24.816h6.816v-14.4c0-1.2160061.1759982-2.1999962.528-2.952s.7759975-1.327998 1.272-1.728 1.0079974-.6719993 1.536-.816.9519984-.216 1.272-.216c1.088005 0 1.911997.1839982 2.472.552s.959999.855997 1.2 1.464.376 1.2719964.408 1.992.048 1.4479963.048 2.184v13.92h6.816v-13.824c0-.7680038.055999-1.5279962.168-2.28s.335998-1.423997.672-2.016.799997-1.0719982 1.392-1.44 1.367995-.552 2.328-.552 1.719997.1599984 2.28.48.983999.7519973 1.272 1.296.464 1.1839963.528 1.92.096 1.5199958.096 2.352v14.064h6.816v-16.608c0-1.600008-.223998-2.9679943-.672-4.104s-1.071996-2.0559965-1.872-2.76-1.759994-1.2159984-2.88-1.536-2.335993-.48-3.648-.48c-1.728009 0-3.223994.41599584-4.488 1.248-1.264006.8320042-2.263996 1.7919946-3 2.88-.672003-1.5360077-1.655994-2.607997-2.952-3.216-1.296006-.60800304-2.727992-.912-4.296-.912-1.632008 0-3.0799937.35199648-4.344 1.056-1.2640063.7040035-2.3439955 1.6959936-3.24 2.976h-.096v-3.36z" fill="#468cc8"/><path d="m129.913086 35.7373047.03418-32.06054689h5.913086l-.03418 32.06054689zm10.151367-16.0302735 16.030274-16.03027339v13.05664059h32.060546l-.034179 5.913086h-32.026367l-.03418 13.0908203z" fill="#d4d4d4"/><path d="m59.1210938 3.67675781-.0341797 32.06054689h-5.913086l.0341797-32.06054689zm-10.1513672 16.03027339-16.0302735 16.0302735v-13.0908203h-32.02636716v-5.913086h32.06054686v-13.05664059z" fill="#d4d4d4"/><path d="m2.00175582 48h-.86796877v-6.6687501h2.06250004c.5070338 0 .88801958.0730461 1.14296878.2191406s.45690031.3573554.60585939.6337891c.14895908.2764336.2234375.5764958.2234375.9001953 0 .2606784-.05012971.5106108-.15039063.7498047s-.24134024.4554678-.42324219.6488281c-.18190196.1933604-.46334446.3659498-.84433596.5177735.14322989.0802087.25065069.1561194.32226563.2277344.07161495.0716149.15898387.1876294.26210938.3480468.10312552.1604175.193359.3108066.27070313.4511719l1.06132815 1.9722657h-.99257814l-.92382815-1.753125c-.22343862-.4239605-.51419093-.7949203-.87226564-1.1128907h-.87656252zm0-3.5320313h.84648439c.35807472 0 .62949128-.0551427.81425783-.1654297s.33157499-.2707021.4404297-.48125c.10885471-.210548.16328125-.4361316.16328125-.6767579 0-.2091156-.04296832-.3960278-.12890625-.5607422-.08593793-.1647143-.21197834-.3029291-.37812501-.4146484s-.44830531-.1675781-.84648439-.1675781h-.91093752zm4.46445322-1.2675782h.79921877v4.7996095h-.79921877zm0-1.065625v-.8035156h.79921877v.8035156zm5.36679696-1.0699219h.7992188v6.9351564h-.7992188v-.8335938c-.163282.3093766-.3222648.5242182-.4769531.6445313s-.32871.2041013-.5220703.2513672c-.1933604.0472659-.3845694.0708984-.5736329.0708984-.36093927 0-.69322762-.0995432-.99687497-.2986328-.30364736-.1990895-.53997313-.4962871-.70898439-.8916016-.16901127-.3953145-.25351563-.8393204-.25351563-1.3320313 0-.7304724.17617011-1.3370418.52851563-1.8197266.35234552-.4826847.84361666-.7240234 1.47382816-.7240234.206251 0 .3996085.0293617.5800781.0880859.1804697.0587243.3416009.1460932.4833985.2621094s.2971997.3229803.4662109.6208985zm0 4.5332032c0-.5442735-.1174467-.9911441-.3523437-1.340625s-.5643208-.5242188-.9882813-.5242188c-.3895853 0-.71327997.154686-.97109377.4640625-.25781379.3093766-.38671876.7720022-.38671876 1.3878907 0 .719014.12460813 1.2181627.37382814 1.497461.24922.2792982.57005009.4189453.96249999.4189453.2549492 0 .4919911-.077343.7111329-.2320313.2191417-.1546882.3824213-.3824203.4898437-.6832031s.1611328-.6302066.1611328-.9882813zm1.9980469-2.3976563h.7992188v4.7996095h-.7992188zm0-1.065625v-.8035156h.7992188v.8035156zm5.0660158 4.6320313h.8035156v.0429688c0 .2148448-.0809236.4311187-.2427734.6488281-.1618498.2177095-.3738268.3845698-.6359375.500586s-.5779279.1740234-.947461.1740234c-.7075556 0-1.2525372-.2241514-1.634961-.6724609-.3824238-.4483096-.5736328-1.0692018-.5736328-1.8626954 0-.7906289.191209-1.4100889.5736328-1.8583985.3824238-.4483095.9274054-.6724609 1.634961-.6724609.3695331 0 .6853503.0580072.947461.1740234s.4740877.274999.6359375.4769532c.1618498.2019541.2427734.4261055.2427734.6724609v.0429688h-.8035156v-.0429688c.0085938-.1747404-.0680331-.3279941-.2298828-.4597656-.1618498-.1317715-.4117822-.1976563-.7498047-.1976563-.4010437 0-.7376289.1475246-1.0097657.4425782-.2721368.2950535-.4082031.7691373-.4082031 1.4222656 0 .6559929.1360663 1.131509.4082031 1.4265626.2721368.2950535.608722.4425781 1.0097657.4425781.3380225 0 .5858065-.0658848.7433594-.1976563.1575528-.1317715.2363281-.2850251.2363281-.4597656zm4.8683595-3.5664063h.7992187v4.7996095h-.7992187v-.8378906c-.1661467.2578138-.3294263.4511712-.4898438.5800781s-.3251294.2263018-.4941406.2921875c-.1690113.0658857-.3537751.0988281-.5542969.0988281-.4440127 0-.8207016-.1253242-1.1300782-.3759765-.3093765-.2506523-.4640625-.7555301-.4640625-1.5146485v-3.0421876h.7992188v2.7070313c0 .7018265.093098 1.1257806.2792969 1.2718751.1861988.1460944.4167955.2191406.6917969.2191406.2377616 0 .461913-.0694655.6724609-.2083985.2105479-.1389329.3781244-.3337227.5027344-.584375s.1869141-.5994118.1869141-1.0462891zm2.8660157 4.7996095h-.7992188v-6.9351564h.7992188zm3.3042969.1332031c-.6273469 0-1.1623025-.2126932-1.6048828-.6380859-.4425804-.4253928-.6638673-1.0577432-.6638673-1.8970704 0-.8364625.2212869-1.4673807.6638673-1.8927735.4425803-.4253927.9775359-.6380859 1.6048828-.6380859.6244823 0 1.1580056.2126932 1.600586.6380859.4425803.4253928.6638672 1.056311.6638672 1.8927735 0 .8393272-.2212869 1.4716776-.6638672 1.8970704-.4425804.4253927-.9761037.6380859-1.600586.6380859zm0-.6660156c.4296897 0 .7755846-.1711572 1.0376953-.5134766s.3931641-.7942029.3931641-1.3556641c0-.5585965-.1310534-1.0090478-.3931641-1.3513672s-.6080056-.5134766-1.0376953-.5134766c-.4325543 0-.7798815.1711572-1.0419922.5134766s-.3931641.7927707-.3931641 1.3513672c0 .5614612.1310534 1.0133447.3931641 1.3556641s.6094379.5134766 1.0419922.5134766zm6.363672-4.266797h.7992188v4.7996095h-.7992188v-.8378906c-.1661467.2578138-.3294263.4511712-.4898437.5800781-.1604175.1289069-.3251294.2263018-.4941407.2921875-.1690112.0658857-.353775.0988281-.5542969.0988281-.4440126 0-.8207016-.1253242-1.1300781-.3759765-.3093766-.2506523-.4640625-.7555301-.4640625-1.5146485v-3.0421876h.7992187v2.7070313c0 .7018265.0930981 1.1257806.2792969 1.2718751.1861989.1460944.4167955.2191406.6917969.2191406.2377616 0 .461913-.0694655.672461-.2083985.2105479-.1389329.3781243-.3337227.5027343-.584375s.1869141-.5994118.1869141-1.0462891zm1.7703126 3.5320313h.7992187v.0171875c0 .2062511.0787753.3774082.2363281.5134766.1575529.1360684.4239565.2041016.7992188.2041016.3294288 0 .5965485-.0802075.8013672-.240625.2048188-.1604175.3072266-.3494781.3072266-.5671875 0-.2950536-.2005188-.5041661-.6015625-.6273438l-.4082032-.1246094-.2707031-.0859375-.5542969-.171875c-.6330761-.2320324-.9496094-.617315-.9496094-1.1558594 0-.3781269.1532537-.7104152.4597657-.996875.3065119-.2864598.7619761-.4296875 1.3664062-.4296875.5958364 0 1.0197905.1224597 1.2718751.3673828s.378125.5163397.378125.8142578v.0171875h-.8035157v-.0171875c0-.1604174-.0809236-.2864578-.2427734-.378125-.1618498-.0916671-.3774075-.1375-.6466797-.1375-.320835 0-.5664705.0666009-.7369141.1998047s-.2556641.2971996-.2556641.4919922c0 .1489591.0551427.2699865.1654297.363086.110287.0930994.295767.1768876.5564454.2513672l.3867187.1074218.2792969.0816407c.3895853.1117193.6323563.1904945.7283203.2363281.0959641.0458336.1926428.1045569.2900391.1761719.1346361.1031255.2341794.2277336.2986328.3738281.0644535.1460945.0966797.3165355.0966797.5113281 0 .4526065-.1625635.8335923-.4876953 1.1429688-.3251319.3093766-.7999318.4640625-1.4244141.4640625-.3953145 0-.723306-.0587233-.9839844-.1761719-.2606784-.1174485-.4683586-.2800119-.6230469-.4876953-.1546883-.2076833-.2320312-.4475898-.2320312-.7197266zm5.5773438 1.2675782h-.7992187v-6.9351564h.7992187zm2.8316407-.20625-2.0625-4.5933595h.8851562l1.6070313 3.5664063 1.5039063-3.5664063h.8035156l-2.0238281 4.8039064c-.2721368.6473991-.4998689 1.0763661-.6832032 1.2869141-.1833342.2105479-.3774078.3587886-.5822265.4447265-.2048188.085938-.4776676.1289063-.8185547.1289063h-.6015626v-.6660156h.4511719c.220574 0 .4139315-.0293617.5800782-.088086.1661466-.0587242.3043614-.1525384.4146484-.2814453s.2585277-.4124978.4447266-.8507813zm6.2390626-1.2933594h.8679688v.0429687c0 .3695331.1303373.6266269.3910156.7712891.2606784.1446622.6072896.2169922 1.0398438.2169922.3781269 0 .6953764-.1102853.9517579-.3308594.2563814-.220574.3845703-.5113263.3845703-.8722656 0-.292189-.1102854-.5313793-.3308594-.7175782-.220574-.1833342-.5557269-.3666657-1.0054688-.55l-.3480469-.1417968c-.4726586-.1947927-.825715-.387434-1.0591797-.5779297-.2334647-.1904958-.4074864-.4017567-.5220703-.6337891s-.171875-.4912746-.171875-.7777344c0-.5041692.1783185-.9295556.5349609-1.2761719.3566425-.3466163.9145145-.5199219 1.6736329-.5199219.6960972 0 1.1859361.128905 1.4695313.3867188s.4253906.558592.4253906.9023437v.0429688h-.8679688v-.0429688c0-.1088547-.0436844-.2162755-.1310546-.3222656-.0873703-.1059901-.2184237-.182617-.3931641-.2298828-.1747405-.0472659-.3666656-.0708985-.5757813-.0708985-.426825 0-.7426422.1067047-.9474609.3201172-.2048188.2134126-.3072266.4561836-.3072266.7283204 0 .1833342.0486974.3559236.1460937.5177734.0973964.1618498.2313143.2957677.4017579.4017578.1704435.1059901.4576151.2477856.8615234.4253907l.4082032.1761718c.6531282.2835952 1.0899728.5815089 1.3105469.8937501.2177094.3122411.3265625.6488263.3265625 1.0097656 0 .3351579-.0888012.6595688-.2664063.9732422-.177605.3136735-.4239568.5514315-.7390625.7132813-.3151058.1618498-.734763.2427734-1.2589844.2427734-.49844 0-.9145166-.0594395-1.2482422-.1783203-.3337257-.1188808-.5872388-.3143867-.7605469-.5865234-.1733082-.2721368-.259961-.5700505-.259961-.8937501zm6.2949221 1.4996094h-.7992188v-6.9351564h.7992188v2.9648438c.1690112-.2606784.333007-.4540358.4919922-.5800781.1589851-.1260423.3251293-.2212888.4984375-.2857422.1733081-.0644535.3659494-.0966797.5779297-.0966797.3007827 0 .570767.0615879.8099609.1847656s.4246738.3043608.5564453.5435547.1976563.6223281.1976563 1.1494141v3.0550782h-.7992188v-2.7113282c0-.4296896-.0286455-.7340486-.0859375-.9130859-.0572919-.1790374-.166145-.3194006-.3265625-.4210938s-.343749-.1525391-.55-.1525391c-.234897 0-.4583323.0687493-.6703125.20625s-.3817051.3294259-.5091797.5757813-.1912109.5986956-.1912109 1.0570313zm6.3722657.1332031c-.6273469 0-1.1623025-.2126932-1.6048828-.6380859-.4425804-.4253928-.6638672-1.0577432-.6638672-1.8970704 0-.8364625.2212868-1.4673807.6638672-1.8927735.4425803-.4253927.9775359-.6380859 1.6048828-.6380859.6244823 0 1.1580056.2126932 1.600586.6380859.4425803.4253928.6638672 1.056311.6638672 1.8927735 0 .8393272-.2212869 1.4716776-.6638672 1.8970704-.4425804.4253927-.9761037.6380859-1.600586.6380859zm0-.6660156c.4296897 0 .7755847-.1711572 1.0376954-.5134766.2621106-.3423194.393164-.7942029.393164-1.3556641 0-.5585965-.1310534-1.0090478-.393164-1.3513672-.2621107-.3423194-.6080057-.5134766-1.0376954-.5134766-.4325542 0-.7798815.1711572-1.0419922.5134766s-.3931641.7927707-.3931641 1.3513672c0 .5614612.1310534 1.0133447.3931641 1.3556641s.609438.5134766 1.0419922.5134766zm4.094922.5328125h-.7992188v-4.7996095h.7992188v.8464844c.1317715-.2434908.2757154-.4325514.4318359-.5671875.1561206-.1346361.3222648-.2370439.4984375-.3072266.1761728-.0701826.3559236-.1052734.5392579-.1052734.1661466 0 .3093744.0243487.4296875.0730469v.8292969c-.1890635-.0916672-.3895823-.1375-.6015625-.1375-.3007828 0-.5922512.1317695-.8744141.3953125s-.4232422.7304654-.4232422 1.4007812zm5.5343751-.6789063v.6703125c-.3895853.0945318-.687499.1417969-.89375.1417969-.2979182 0-.5664702-.0601556-.8056641-.1804687s-.4210931-.295051-.5457031-.5242188-.1869141-.5943985-.1869141-1.0957031v-2.4664063h-.8335938v-.6660157h.8335938v-1.134375h.7992188v1.134375h1.4007812v.6660157h-1.4007812v2.2386719c0 .4239604.0329423.7182934.0988281.8830078.0658857.1647144.1697258.2857418.3115234.363086.1417976.0773441.3115225.1160156.5091797.1160156.1575529 0 .395311-.0486974.7132813-.1460938zm3.8027345-5.9898438h.8679687v4.2882813c0 .6244823.0608718 1.0434234.1826172 1.256836.1217454.2134125.3115222.375976.569336.4876953s.5457015.1675781.8636719.1675781c.3065119 0 .5779285-.0558588.8142578-.1675781s.4124994-.2886056.5285156-.5306641.1740235-.7483685.1740235-1.5189453v-3.9832032h.7992187v4.2066407c0 .7791706-.0895173 1.3263005-.2685547 1.6414063-.1790373.3151057-.4375634.564322-.7755859.7476562-.3380225.1833343-.7634089.275-1.2761719.275-.4755232 0-.9109356-.0730461-1.30625-.2191406-.3953145-.1460945-.6896475-.3731104-.8830079-.6810547-.1933603-.3079443-.290039-.8300094-.290039-1.566211zm6.8320314 6.6687501h-.8679688v-6.6687501h2.0625c.5070338 0 .8880196.0730461 1.1429688.2191406s.4569003.3573554.6058594.6337891c.1489591.2764336.2234375.5764958.2234375.9001953 0 .2606784-.0501297.5106108-.1503906.7498047s-.2413403.4554678-.4232422.6488281c-.181902.1933604-.4633445.3659498-.844336.5177735.1432299.0802087.2506507.1561194.3222657.2277344.0716149.0716149.1589838.1876294.2621093.3480468.1031255.1604175.193359.3108066.2707032.4511719l1.0613281 1.9722657h-.9925781l-.9238282-1.753125c-.2234386-.4239605-.5141909-.7949203-.8722656-1.1128907h-.8765625zm0-3.5320313h.8464843c.3580748 0 .6294913-.0551427.8142579-.1654297.1847665-.110287.331575-.2707021.4404297-.48125.1088547-.210548.1632812-.4361316.1632812-.6767579 0-.2091156-.0429683-.3960278-.1289062-.5607422-.085938-.1647143-.2119784-.3029291-.378125-.4146484-.1661467-.1117193-.4483053-.1675781-.8464844-.1675781h-.9109375zm4.4644532 3.5320313v-6.6687501h.8679687v5.9339845h3.4976564v.7347656zm4.8382813-1.2675782h.7992188v.0171875c0 .2062511.0787753.3774082.2363281.5134766.1575529.1360684.4239565.2041016.7992188.2041016.3294287 0 .5965485-.0802075.8013672-.240625s.3072266-.3494781.3072266-.5671875c0-.2950536-.2005189-.5041661-.6015625-.6273438l-.4082032-.1246094-.2707031-.0859375-.5542969-.171875c-.6330761-.2320324-.9496094-.617315-.9496094-1.1558594 0-.3781269.1532537-.7104152.4597656-.996875.306512-.2864598.7619762-.4296875 1.3664063-.4296875.5958364 0 1.0197905.1224597 1.2718751.3673828s.378125.5163397.378125.8142578v.0171875h-.8035157v-.0171875c0-.1604174-.0809237-.2864578-.2427734-.378125-.1618498-.0916671-.3774075-.1375-.6466797-.1375-.320835 0-.5664705.0666009-.7369141.1998047s-.2556641.2971996-.2556641.4919922c0 .1489591.0551427.2699865.1654297.363086.110287.0930994.295767.1768876.5564453.2513672l.3867188.1074218.2792969.0816407c.3895853.1117193.6323563.1904945.7283203.2363281s.1926428.1045569.2900391.1761719c.1346361.1031255.2341794.2277336.2986328.3738281s.0966797.3165355.0966797.5113281c0 .4526065-.1625635.8335923-.4876953 1.1429688-.3251319.3093766-.7999318.4640625-1.4244141.4640625-.3953145 0-.723306-.0587233-.9839844-.1761719-.2606784-.1174485-.4683586-.2800119-.6230469-.4876953-.1546883-.2076833-.2320313-.4475898-.2320313-.7197266zm8.9460942 1.2675782h-.799219v-4.1335938h-.700391v-.6660157h.700391v-.2234375c0-.6960972.146808-1.1888006.44043-1.478125.293621-.2893244.676755-.4339844 1.149414-.4339844.177605 0 .402472.0200519.674609.0601563v.653125c-.223438-.028646-.402473-.0429688-.537109-.0429688-.257814 0-.476952.0630202-.657422.1890625s-.270703.4268206-.270703.9023438v.3738281h1.400781v.6660157h-1.400781zm4.236719.1332031c-.627347 0-1.162303-.2126932-1.604883-.6380859-.442581-.4253928-.663867-1.0577432-.663867-1.8970704 0-.8364625.221286-1.4673807.663867-1.8927735.44258-.4253927.977536-.6380859 1.604883-.6380859.624482 0 1.158005.2126932 1.600586.6380859.44258.4253928.663867 1.056311.663867 1.8927735 0 .8393272-.221287 1.4716776-.663867 1.8970704-.442581.4253927-.976104.6380859-1.600586.6380859zm0-.6660156c.429689 0 .775584-.1711572 1.037695-.5134766s.393164-.7942029.393164-1.3556641c0-.5585965-.131053-1.0090478-.393164-1.3513672s-.608006-.5134766-1.037695-.5134766c-.432555 0-.779882.1711572-1.041993.5134766-.26211.3423194-.393164.7927707-.393164 1.3513672 0 .5614612.131054 1.0133447.393164 1.3556641.262111.3423194.609438.5134766 1.041993.5134766zm4.094922.5328125h-.799219v-4.7996095h.799219v.8464844c.131771-.2434908.275715-.4325514.431836-.5671875.15612-.1346361.322264-.2370439.498437-.3072266.176173-.0701826.355924-.1052734.539258-.1052734.166147 0 .309374.0243487.429687.0730469v.8292969c-.189063-.0916672-.389582-.1375-.601562-.1375-.300783 0-.592251.1317695-.874414.3953125s-.423242.7304654-.423242 1.4007812zm8.46914-.6789063v.6703125c-.389585.0945318-.687499.1417969-.89375.1417969-.297918 0-.56647-.0601556-.805664-.1804687s-.421093-.295051-.545703-.5242188-.186914-.5943985-.186914-1.0957031v-2.4664063h-.833594v-.6660157h.833594v-1.134375h.799219v1.134375h1.400781v.6660157h-1.400781v2.2386719c0 .4239604.032942.7182934.098828.8830078s.169726.2857418.311523.363086c.141798.0773441.311523.1160156.50918.1160156.157553 0 .395311-.0486974.713281-.1460938zm1.766016.6789063h-.799219v-6.9351564h.799219v2.9648438c.169011-.2606784.333007-.4540358.491992-.5800781s.32513-.2212888.498438-.2857422c.173308-.0644535.365949-.0966797.577929-.0966797.300783 0 .570768.0615879.809961.1847656.239194.1231777.424674.3043608.556446.5435547.131771.2391939.197656.6223281.197656 1.1494141v3.0550782h-.799219v-2.7113282c0-.4296896-.028645-.7340486-.085937-.9130859-.057292-.1790374-.166145-.3194006-.326563-.4210938-.160417-.1016932-.343749-.1525391-.55-.1525391-.234897 0-.458332.0687493-.670312.20625-.211981.1375007-.381705.3294259-.50918.5757813s-.191211.5986956-.191211 1.0570313zm7.472266-1.2332032h.799219v.0429688c0 .2119802-.084505.4282541-.253516.6488281-.169011.2205741-.392447.3881505-.670313.5027344s-.597263.171875-.958203.171875c-.730472 0-1.294073-.2363257-1.69082-.7089844-.396747-.4726586-.595117-1.0699183-.595117-1.7917969 0-.7390662.209828-1.3513648.629492-1.8369141s.960348-.7283203 1.62207-.7283203c.363804 0 .693228.0787752.988282.2363281.295053.1575529.528514.4031885.70039.7369141s.257813.7984996.257813 1.394336v.2664062h-3.407422c0 .512763.138215.9352848.414648 1.2675782.276434.3322933.659568.4984375 1.149414.4984375.352346 0 .60944-.0680332.771289-.2041016.16185-.1360684.242774-.2871736.242774-.4533203zm-2.526563-1.6671875h2.591016v-.0945312c0-.2234387-.05371-.4404287-.161133-.6509766-.107422-.2105479-.255663-.3666662-.444726-.4683594-.189064-.1016932-.409635-.1525391-.661719-.1525391-.297918 0-.572916.1195952-.825.3587891-.252085.2391939-.418229.575063-.498438 1.0076172zm7.291797-3.7683594h.867969v4.2882813c0 .6244823.060872 1.0434234.182617 1.256836.121746.2134125.311522.375976.569336.4876953s.545702.1675781.863672.1675781c.306512 0 .577929-.0558588.814258-.1675781s.412499-.2886056.528516-.5306641c.116016-.2420585.174023-.7483685.174023-1.5189453v-3.9832032h.799219v4.2066407c0 .7791706-.089518 1.3263005-.268555 1.6414063-.179037.3151057-.437563.564322-.775586.7476562-.338022.1833343-.763409.275-1.276172.275-.475523 0-.910935-.0730461-1.30625-.2191406-.395314-.1460945-.689647-.3731104-.883008-.6810547-.19336-.3079443-.290039-.8300094-.290039-1.566211zm6.763282 6.6687501h-.799219v-4.7996095h.799219v.8292969c.169011-.2606784.333007-.4540358.491992-.5800781s.325129-.2212888.498437-.2857422c.173309-.0644535.36595-.0966797.57793-.0966797.300783 0 .570767.0615879.809961.1847656s.424674.3043608.556445.5435547c.131772.2391939.197657.6223281.197657 1.1494141v3.0550782h-.799219v-2.7113282c0-.4296896-.028646-.7340486-.085938-.9130859-.057292-.1790374-.169009-.3194006-.335156-.4210938s-.346613-.1525391-.541406-.1525391c-.234897 0-.458332.0687493-.670313.20625-.21198.1375007-.381705.3294259-.509179.5757813-.127475.2463554-.191211.5986956-.191211 1.0570313zm4.335547-4.7996095h.799218v4.7996095h-.799218zm0-1.065625v-.8035156h.799218v.8035156zm5.066015 4.6320313h.803516v.0429688c0 .2148448-.080924.4311187-.242773.6488281-.16185.2177095-.373827.3845698-.635938.500586s-.577928.1740234-.947461.1740234c-.707555 0-1.252537-.2241514-1.634961-.6724609-.382424-.4483096-.573633-1.0692018-.573633-1.8626954 0-.7906289.191209-1.4100889.573633-1.8583985.382424-.4483095.927406-.6724609 1.634961-.6724609.369533 0 .68535.0580072.947461.1740234s.474088.274999.635938.4769532c.161849.2019541.242773.4261055.242773.6724609v.0429688h-.803516v-.0429688c.008594-.1747404-.068033-.3279941-.229882-.4597656-.16185-.1317715-.411783-.1976563-.749805-.1976563-.401044 0-.737629.1475246-1.009766.4425782-.272137.2950535-.408203.7691373-.408203 1.4222656 0 .6559929.136066 1.131509.408203 1.4265626.272137.2950535.608722.4425781 1.009766.4425781.338022 0 .585806-.0658848.743359-.1976563s.236328-.2850251.236328-.4597656zm3.83711 1.3664063c-.627347 0-1.162303-.2126932-1.604883-.6380859-.44258-.4253928-.663867-1.0577432-.663867-1.8970704 0-.8364625.221287-1.4673807.663867-1.8927735.44258-.4253927.977536-.6380859 1.604883-.6380859.624482 0 1.158006.2126932 1.600586.6380859.44258.4253928.663867 1.056311.663867 1.8927735 0 .8393272-.221287 1.4716776-.663867 1.8970704-.44258.4253927-.976104.6380859-1.600586.6380859zm0-.6660156c.42969 0 .775585-.1711572 1.037695-.5134766.262111-.3423194.393164-.7942029.393164-1.3556641 0-.5585965-.131053-1.0090478-.393164-1.3513672-.26211-.3423194-.608005-.5134766-1.037695-.5134766-.432554 0-.779882.1711572-1.041992.5134766-.262111.3423194-.393164.7927707-.393164 1.3513672 0 .5614612.131053 1.0133447.393164 1.3556641.26211.3423194.609438.5134766 1.041992.5134766zm6.595703-6.4023439h.799219v6.9351564h-.799219v-.8335938c-.163282.3093766-.322265.5242182-.476953.6445313s-.32871.2041013-.52207.2513672c-.193361.0472659-.38457.0708984-.573633.0708984-.360939 0-.693228-.0995432-.996875-.2986328-.303648-.1990895-.539973-.4962871-.708985-.8916016-.169011-.3953145-.253515-.8393204-.253515-1.3320313 0-.7304724.17617-1.3370418.528515-1.8197266.352346-.4826847.843617-.7240234 1.473829-.7240234.206251 0 .399608.0293617.580078.0880859.180469.0587243.341601.1460932.483398.2621094.141798.1160162.2972.3229803.466211.6208985zm0 4.5332032c0-.5442735-.117447-.9911441-.352344-1.340625s-.56432-.5242188-.988281-.5242188c-.389585 0-.71328.154686-.971094.4640625-.257813.3093766-.386718.7720022-.386718 1.3878907 0 .719014.124608 1.2181627.373828 1.497461.24922.2792982.57005.4189453.9625.4189453.254949 0 .491991-.077343.711133-.2320313.219141-.1546882.382421-.3824203.489843-.6832031.107423-.3007828.161133-.6302066.161133-.9882813zm5.134766 1.16875h.799219v.0429688c0 .2119802-.084505.4282541-.253516.6488281-.169011.2205741-.392447.3881505-.670312.5027344-.277866.1145839-.597264.171875-.958204.171875-.730472 0-1.294073-.2363257-1.69082-.7089844-.396747-.4726586-.595117-1.0699183-.595117-1.7917969 0-.7390662.209828-1.3513648.629492-1.8369141s.960348-.7283203 1.62207-.7283203c.363804 0 .693228.0787752.988282.2363281.295053.1575529.528514.4031885.70039.7369141s.257813.7984996.257813 1.394336v.2664062h-3.407422c0 .512763.138215.9352848.414648 1.2675782.276434.3322933.659568.4984375 1.149414.4984375.352346 0 .60944-.0680332.771289-.2041016.16185-.1360684.242774-.2871736.242774-.4533203zm-2.526563-1.6671875h2.591016v-.0945312c0-.2234387-.05371-.4404287-.161133-.6509766-.107422-.2105479-.255663-.3666662-.444726-.4683594-.189064-.1016932-.409635-.1525391-.661719-.1525391-.297918 0-.572916.1195952-.825.3587891-.252085.2391939-.418229.575063-.498438 1.0076172zm7.695704 2.9003907h-.803516l2.732813-6.6687501h.876562l2.522266 6.6687501h-.936719l-.691797-1.8347657h-2.943359zm1.018359-2.5007813h2.423438l-1.16875-3.0980469zm8.37461 1.4867188c-.163282.3380225-.37526.5915356-.635938.7605469-.260678.1690112-.57005.2535156-.928125.2535156-.570055 0-1.040558-.2241514-1.411523-.672461-.370966-.4483095-.556446-1.0376916-.556446-1.7681641 0-.4812524.083072-.9195292.249219-1.3148437s.399608-.6903637.700391-.8851563c.300782-.1947926.653123-.2921875 1.057031-.2921875.300783 0 .570051.0594395.807812.1783203.237762.1188808.476952.3602196.717579.7240235v-.7691407h.799218v3.923047c0 .9854216-.103124 1.6356755-.309375 1.9507813-.206251.3151057-.467641.5485669-.784179.7003906s-.688214.2277344-1.115039.2277344c-.395315 0-.749804-.0587234-1.063477-.1761719s-.552148-.2785797-.71543-.4833984c-.163282-.2048188-.244922-.417512-.244922-.638086v-.0730469h.799219v.06875c0 .2119803.114582.3817051.34375.5091797s.51992.191211.872266.191211c.28646 0 .532095-.0494136.736914-.1482422s.369531-.2592437.494141-.48125.186914-.6251924.186914-1.2095704zm0-1.5296876c0-.5127629-.13177-.9281234-.395313-1.2460937-.263543-.3179704-.578644-.4769532-.945312-.4769532-.389586 0-.71328.1604151-.971094.48125-.257814.320835-.386719.7720024-.386719 1.3535157 0 .3666685.051562.6874986.154688.9625.103125.2750014.264256.4833978.483398.6251953.219142.1417976.453319.2126954.702539.2126954.403908 0 .731184-.1783186.981836-.534961s.375977-.8156873.375977-1.3771485zm5.203515 1.3105469h.799219v.0429688c0 .2119802-.084504.4282541-.253516.6488281-.169011.2205741-.392446.3881505-.670312.5027344s-.597264.171875-.958203.171875c-.730473 0-1.294074-.2363257-1.690821-.7089844-.396746-.4726586-.595117-1.0699183-.595117-1.7917969 0-.7390662.209829-1.3513648.629492-1.8369141.419664-.4855493.960349-.7283203 1.622071-.7283203.363804 0 .693227.0787752.988281.2363281s.528515.4031885.700391.7369141.257812.7984996.257812 1.394336v.2664062h-3.407422c0 .512763.138215.9352848.414649 1.2675782.276433.3322933.659568.4984375 1.149414.4984375.352345 0 .609439-.0680332.771289-.2041016s.242773-.2871736.242773-.4533203zm-2.526562-1.6671875h2.591015v-.0945312c0-.2234387-.05371-.4404287-.161132-.6509766-.107423-.2105479-.255664-.3666662-.444727-.4683594s-.409634-.1525391-.661719-.1525391c-.297918 0-.572915.1195952-.825.3587891-.252084.2391939-.418229.575063-.498437 1.0076172z" fill="#262626"/></g></svg>