<?xml version="1.0" encoding="UTF-8" standalone="no"?>
<svg width="189px" height="50px" viewBox="0 0 189 50" version="1.1" xmlns="http://www.w3.org/2000/svg" xmlns:xlink="http://www.w3.org/1999/xlink" xmlns:sketch="http://www.bohemiancoding.com/sketch/ns">
    <!-- Generator: Sketch 3.0.2 (7799) - http://www.bohemiancoding.com/sketch -->
    <title>Logo</title>
    <description>Created with Sketch.</description>
    <defs></defs>
    <g id="Page-1" stroke="none" stroke-width="1" fill="none" fill-rule="evenodd" sketch:type="MSPage">
        <path d="M69.976,26.36 L63.496,26.36 C63.688001,27.8320074 64.087997,29.1439942 64.696,30.296 C65.304003,31.4480058 66.0879952,32.423996 67.048,33.224 C68.0080048,34.024004 69.1119938,34.623998 70.36,35.024 C71.6080062,35.424002 72.9519928,35.624 74.392,35.624 C76.792012,35.624 78.8239917,35.1040052 80.488,34.064 C82.1520083,33.0239948 83.5119947,31.6640084 84.568,29.984 C85.6240053,28.3039916 86.3919976,26.4240104 86.872,24.344 C87.3520024,22.2639896 87.592,20.1840104 87.592,18.104 C87.592,15.9919894 87.4000019,13.8960104 87.016,11.816 C86.6319981,9.7359896 85.944005,7.87200824 84.952,6.224 C83.959995,4.57599176 82.6400082,3.24800504 80.992,2.24 C79.3439918,1.23199496 77.2400128,0.728 74.68,0.728 C72.9199912,0.728 71.3200072,1.0479968 69.88,1.688 C68.4399928,2.3280032 67.2000052,3.19999448 66.16,4.304 C65.1199948,5.40800552 64.3200028,6.70399256 63.76,8.192 C63.1999972,9.68000744 62.92,11.2879914 62.92,13.016 C62.92,14.3600067 63.1279979,15.6879934 63.544,17 C63.9600021,18.3120066 64.6159955,19.4799949 65.512,20.504 C66.4720048,21.5600053 67.6399931,22.3999969 69.016,23.024 C70.3920069,23.6480031 71.7999928,23.96 73.24,23.96 C74.8720082,23.96 76.3119938,23.6720029 77.56,23.096 C78.8080062,22.5199971 79.8959954,21.5600067 80.824,20.216 L80.92,20.312 C80.8559997,21.2400046 80.720001,22.2959941 80.512,23.48 C80.303999,24.6640059 79.9600024,25.7759948 79.48,26.816 C78.9999976,27.8560052 78.360004,28.7359964 77.56,29.456 C76.759996,30.1760036 75.7360062,30.536 74.488,30.536 C73.3039941,30.536 72.312004,30.1200042 71.512,29.288 C70.711996,28.4559958 70.2000011,27.4800056 69.976,26.36 Z M74.872,18.824 C74.0079957,18.824 73.2480033,18.6400018 72.592,18.272 C71.9359967,17.9039982 71.4000021,17.424003 70.984,16.832 C70.5679979,16.239997 70.256001,15.5680038 70.048,14.816 C69.839999,14.0639962 69.736,13.288004 69.736,12.488 C69.736,11.7199962 69.8479989,10.9680037 70.072,10.232 C70.2960011,9.49599632 70.6319978,8.84000288 71.08,8.264 C71.5280022,7.68799712 72.0719968,7.22400176 72.712,6.872 C73.3520032,6.51999824 74.071996,6.344 74.872,6.344 C75.7360043,6.344 76.5039966,6.51999824 77.176,6.872 C77.8480034,7.22400176 78.4159977,7.69599704 78.88,8.288 C79.3440023,8.88000296 79.6959988,9.55199624 79.936,10.304 C80.1760012,11.0560038 80.296,11.8159962 80.296,12.584 C80.296,13.4160042 80.1840011,14.2079962 79.96,14.96 C79.7359989,15.7120038 79.4000022,16.3759971 78.952,16.952 C78.5039978,17.5280029 77.9440034,17.9839983 77.272,18.32 C76.5999966,18.6560017 75.8000046,18.824 74.872,18.824 Z M88.384,10.184 L88.384,35 L95.2,35 L95.2,20.6 C95.2,19.3839939 95.3759982,18.4000038 95.728,17.648 C96.0800018,16.8959962 96.5039975,16.320002 97,15.92 C97.4960025,15.519998 98.0079974,15.2480007 98.536,15.104 C99.0640026,14.9599993 99.4879984,14.888 99.808,14.888 C100.896005,14.888 101.719997,15.0719982 102.28,15.44 C102.840003,15.8080018 103.239999,16.295997 103.48,16.904 C103.720001,17.512003 103.856,18.1759964 103.888,18.896 C103.92,19.6160036 103.936,20.3439963 103.936,21.08 L103.936,35 L110.752,35 L110.752,21.176 C110.752,20.4079962 110.807999,19.6480038 110.92,18.896 C111.032001,18.1439962 111.255998,17.472003 111.592,16.88 C111.928002,16.287997 112.391997,15.8080018 112.984,15.44 C113.576003,15.0719982 114.351995,14.888 115.312,14.888 C116.272005,14.888 117.031997,15.0479984 117.592,15.368 C118.152003,15.6880016 118.575999,16.1199973 118.864,16.664 C119.152001,17.2080027 119.328,17.8479963 119.392,18.584 C119.456,19.3200037 119.488,20.1039958 119.488,20.936 L119.488,35 L126.304,35 L126.304,18.392 C126.304,16.791992 126.080002,15.4240057 125.632,14.288 C125.183998,13.1519943 124.560004,12.2320035 123.76,11.528 C122.959996,10.8239965 122.000006,10.3120016 120.88,9.992 C119.759994,9.6719984 118.544007,9.512 117.232,9.512 C115.503991,9.512 114.008006,9.92799584 112.744,10.76 C111.479994,11.5920042 110.480004,12.5519946 109.744,13.64 C109.071997,12.1039923 108.088006,11.032003 106.792,10.424 C105.495994,9.81599696 104.064008,9.512 102.496,9.512 C100.863992,9.512 99.4160063,9.86399648 98.152,10.568 C96.8879937,11.2720035 95.8080045,12.2639936 94.912,13.544 L94.816,13.544 L94.816,10.184 L88.384,10.184 Z" id="9m" fill="#468CC8" sketch:type="MSShapeGroup"></path>
        <path d="M129.913086,35.7373047 L129.947266,3.67675781 L135.860352,3.67675781 L135.826172,35.7373047 L129.913086,35.7373047 Z M140.064453,19.7070312 L156.094727,3.67675781 L156.094727,16.7333984 L188.155273,16.7333984 L188.121094,22.6464844 L156.094727,22.6464844 L156.060547,35.7373047 L140.064453,19.7070312 Z" id="⇤" fill="#D4D4D4" sketch:type="MSShapeGroup"></path>
        <path d="M59.1210938,3.67675781 L59.0869141,35.7373047 L53.1738281,35.7373047 L53.2080078,3.67675781 L59.1210938,3.67675781 Z M48.9697266,19.7070312 L32.9394531,35.7373047 L32.9394531,22.6464844 L0.913085938,22.6464844 L0.913085938,16.7333984 L32.9736328,16.7333984 L32.9736328,3.67675781 L48.9697266,19.7070312 Z" id="⇥" fill="#D4D4D4" sketch:type="MSShapeGroup"></path>
        <path d="M2.00175582,48 L1.13378705,48 L1.13378705,41.3312499 L3.19628709,41.3312499 C3.70332089,41.3312499 4.08430667,41.404296 4.33925587,41.5503905 C4.59420507,41.696485 4.79615618,41.9077459 4.94511526,42.1841796 C5.09407434,42.4606132 5.16855276,42.7606754 5.16855276,43.0843749 C5.16855276,43.3450533 5.11842305,43.5949857 5.01816213,43.8341796 C4.91790121,44.0733735 4.77682189,44.2896474 4.59491994,44.4830077 C4.41301798,44.6763681 4.13157548,44.8489575 3.75058398,45.0007812 C3.89381387,45.0809899 4.00123467,45.1569006 4.07284961,45.2285156 C4.14446456,45.3001305 4.23183348,45.416145 4.33495899,45.5765624 C4.43808451,45.7369799 4.52831799,45.887369 4.60566212,46.0277343 L5.66699027,48 L4.67441213,48 L3.75058398,46.246875 C3.52714536,45.8229145 3.23639305,45.4519547 2.87831834,45.1339843 L2.00175582,45.1339843 L2.00175582,48 Z M2.00175582,44.4679687 L2.84824021,44.4679687 C3.20631493,44.4679687 3.47773149,44.412826 3.66249804,44.302539 C3.84726459,44.192252 3.99407303,44.0318369 4.10292774,43.821289 C4.21178245,43.610741 4.26620899,43.3851574 4.26620899,43.1445311 C4.26620899,42.9354155 4.22324067,42.7485033 4.13730274,42.5837889 C4.05136481,42.4190746 3.9253244,42.2808598 3.75917773,42.1691405 C3.59303106,42.0574212 3.31087242,42.0015624 2.91269334,42.0015624 L2.00175582,42.0015624 L2.00175582,44.4679687 Z M6.46620904,43.2003905 L7.26542781,43.2003905 L7.26542781,48 L6.46620904,48 L6.46620904,43.2003905 Z M6.46620904,42.1347655 L6.46620904,41.3312499 L7.26542781,41.3312499 L7.26542781,42.1347655 L6.46620904,42.1347655 Z M11.833006,41.0648436 L12.6322248,41.0648436 L12.6322248,48 L11.833006,48 L11.833006,47.1664062 C11.669724,47.4757828 11.5107412,47.6906244 11.3560529,47.8109375 C11.2013646,47.9312506 11.0273429,48.0150388 10.8339826,48.0623047 C10.6406222,48.1095706 10.4494132,48.1332031 10.2603497,48.1332031 C9.89941043,48.1332031 9.56712208,48.0336599 9.26347473,47.8345703 C8.95982737,47.6354808 8.7235016,47.3382832 8.55449034,46.9429687 C8.38547907,46.5476542 8.30097471,46.1036483 8.30097471,45.6109374 C8.30097471,44.880465 8.47714482,44.2738956 8.82949034,43.7912108 C9.18183586,43.3085261 9.673107,43.0671874 10.3033185,43.0671874 C10.5095695,43.0671874 10.702927,43.0965491 10.8833966,43.1552733 C11.0638663,43.2139976 11.2249975,43.3013665 11.3667951,43.4173827 C11.5085927,43.5333989 11.6639948,43.740363 11.833006,44.0382812 L11.833006,41.0648436 Z M11.833006,45.5980468 C11.833006,45.0537733 11.7155593,44.6069027 11.4806623,44.2574218 C11.2457653,43.9079409 10.9163415,43.733203 10.492381,43.733203 C10.1027957,43.733203 9.77910103,43.887889 9.52128723,44.1972655 C9.26347344,44.5066421 9.13456847,44.9692677 9.13456847,45.5851562 C9.13456847,46.3041702 9.2591766,46.8033189 9.50839661,47.0826172 C9.75761661,47.3619154 10.0784467,47.5015625 10.4708966,47.5015625 C10.7258458,47.5015625 10.9628877,47.4242195 11.1820295,47.2695312 C11.4011712,47.114843 11.5644508,46.8871109 11.6718732,46.5863281 C11.7792956,46.2855453 11.833006,45.9561215 11.833006,45.5980468 L11.833006,45.5980468 Z M13.8310529,43.2003905 L14.6302717,43.2003905 L14.6302717,48 L13.8310529,48 L13.8310529,43.2003905 Z M13.8310529,42.1347655 L13.8310529,41.3312499 L14.6302717,41.3312499 L14.6302717,42.1347655 L13.8310529,42.1347655 Z M18.8970687,46.7667968 L19.7005843,46.7667968 L19.7005843,46.8097656 C19.7005843,47.0246104 19.6196607,47.2408843 19.4578109,47.4585937 C19.2959611,47.6763032 19.0839841,47.8431635 18.8218734,47.9591797 C18.5597627,48.0751959 18.2439455,48.1332031 17.8744124,48.1332031 C17.1668568,48.1332031 16.6218752,47.9090517 16.2394514,47.4607422 C15.8570276,47.0124326 15.6658186,46.3915404 15.6658186,45.5980468 C15.6658186,44.8074179 15.8570276,44.1879579 16.2394514,43.7396483 C16.6218752,43.2913388 17.1668568,43.0671874 17.8744124,43.0671874 C18.2439455,43.0671874 18.5597627,43.1251946 18.8218734,43.2412108 C19.0839841,43.357227 19.2959611,43.5162098 19.4578109,43.718164 C19.6196607,43.9201181 19.7005843,44.1442695 19.7005843,44.3906249 L19.7005843,44.4335937 L18.8970687,44.4335937 L18.8970687,44.3906249 C18.9056625,44.2158845 18.8290356,44.0626308 18.6671859,43.9308593 C18.5053361,43.7990878 18.2554037,43.733203 17.9173812,43.733203 C17.5163375,43.733203 17.1797523,43.8807276 16.9076155,44.1757812 C16.6354787,44.4708347 16.4994124,44.9449185 16.4994124,45.5980468 C16.4994124,46.2540397 16.6354787,46.7295558 16.9076155,47.0246094 C17.1797523,47.3196629 17.5163375,47.4671875 17.9173812,47.4671875 C18.2554037,47.4671875 18.5031877,47.4013027 18.6607406,47.2695312 C18.8182934,47.1377597 18.8970687,46.9845061 18.8970687,46.8097656 L18.8970687,46.7667968 Z M23.7654282,43.2003905 L24.5646469,43.2003905 L24.5646469,48 L23.7654282,48 L23.7654282,47.1621094 C23.5992815,47.4199232 23.4360019,47.6132806 23.2755844,47.7421875 C23.1151669,47.8710944 22.950455,47.9684893 22.7814438,48.034375 C22.6124325,48.1002607 22.4276687,48.1332031 22.2271469,48.1332031 C21.7831342,48.1332031 21.4064453,48.0078789 21.0970687,47.7572266 C20.7876922,47.5065743 20.6330062,47.0016965 20.6330062,46.2425781 L20.6330062,43.2003905 L21.432225,43.2003905 L21.432225,45.9074218 C21.432225,46.6092483 21.525323,47.0332024 21.7115219,47.1792969 C21.8977207,47.3253913 22.1283174,47.3984375 22.4033188,47.3984375 C22.6410804,47.3984375 22.8652318,47.328972 23.0757797,47.190039 C23.2863276,47.0511061 23.4539041,46.8563163 23.5785141,46.605664 C23.7031241,46.3550117 23.7654282,46.0062522 23.7654282,45.5593749 L23.7654282,43.2003905 Z M26.6314439,48 L25.8322251,48 L25.8322251,41.0648436 L26.6314439,41.0648436 L26.6314439,48 Z M29.9357408,48.1332031 C29.3083939,48.1332031 28.7734383,47.9205099 28.330858,47.4951172 C27.8882776,47.0697244 27.6669907,46.437374 27.6669907,45.5980468 C27.6669907,44.7615843 27.8882776,44.1306661 28.330858,43.7052733 C28.7734383,43.2798806 29.3083939,43.0671874 29.9357408,43.0671874 C30.5602231,43.0671874 31.0937464,43.2798806 31.5363268,43.7052733 C31.9789071,44.1306661 32.200194,44.7615843 32.200194,45.5980468 C32.200194,46.437374 31.9789071,47.0697244 31.5363268,47.4951172 C31.0937464,47.9205099 30.5602231,48.1332031 29.9357408,48.1332031 L29.9357408,48.1332031 Z M29.9357408,47.4671875 C30.3654305,47.4671875 30.7113254,47.2960303 30.9734361,46.9537109 C31.2355468,46.6113915 31.3666002,46.159508 31.3666002,45.5980468 C31.3666002,45.0394503 31.2355468,44.588999 30.9734361,44.2466796 C30.7113254,43.9043602 30.3654305,43.733203 29.9357408,43.733203 C29.5031865,43.733203 29.1558593,43.9043602 28.8937486,44.2466796 C28.6316379,44.588999 28.5005845,45.0394503 28.5005845,45.5980468 C28.5005845,46.159508 28.6316379,46.6113915 28.8937486,46.9537109 C29.1558593,47.2960303 29.5031865,47.4671875 29.9357408,47.4671875 L29.9357408,47.4671875 Z M36.2994128,43.2003905 L37.0986316,43.2003905 L37.0986316,48 L36.2994128,48 L36.2994128,47.1621094 C36.1332661,47.4199232 35.9699865,47.6132806 35.8095691,47.7421875 C35.6491516,47.8710944 35.4844397,47.9684893 35.3154284,48.034375 C35.1464172,48.1002607 34.9616534,48.1332031 34.7611315,48.1332031 C34.3171189,48.1332031 33.9404299,48.0078789 33.6310534,47.7572266 C33.3216768,47.5065743 33.1669909,47.0016965 33.1669909,46.2425781 L33.1669909,43.2003905 L33.9662096,43.2003905 L33.9662096,45.9074218 C33.9662096,46.6092483 34.0593077,47.0332024 34.2455065,47.1792969 C34.4317054,47.3253913 34.662302,47.3984375 34.9373034,47.3984375 C35.175065,47.3984375 35.3992164,47.328972 35.6097644,47.190039 C35.8203123,47.0511061 35.9878887,46.8563163 36.1124987,46.605664 C36.2371087,46.3550117 36.2994128,46.0062522 36.2994128,45.5593749 L36.2994128,43.2003905 Z M38.0697254,46.7324218 L38.8689441,46.7324218 L38.8689441,46.7496093 C38.8689441,46.9558604 38.9477194,47.1270175 39.1052722,47.2630859 C39.2628251,47.3991543 39.5292287,47.4671875 39.904491,47.4671875 C40.2339198,47.4671875 40.5010395,47.38698 40.7058582,47.2265625 C40.910677,47.066145 41.0130848,46.8770844 41.0130848,46.659375 C41.0130848,46.3643214 40.812566,46.1552089 40.4115223,46.0320312 L40.0033191,45.9074218 L39.732616,45.8214843 L39.1783191,45.6496093 C38.545243,45.4175769 38.2287097,45.0322943 38.2287097,44.4937499 C38.2287097,44.115623 38.3819634,43.7833347 38.6884754,43.4968749 C38.9949873,43.2104151 39.4504515,43.0671874 40.0548816,43.0671874 C40.650718,43.0671874 41.0746721,43.1896471 41.3267567,43.4345702 C41.5788413,43.6794933 41.7048817,43.9509099 41.7048817,44.248828 L41.7048817,44.2660155 L40.901366,44.2660155 L40.901366,44.248828 C40.901366,44.0884106 40.8204424,43.9623702 40.6585926,43.870703 C40.4967428,43.7790359 40.2811851,43.733203 40.0119129,43.733203 C39.6910779,43.733203 39.4454424,43.7998039 39.2749988,43.9330077 C39.1045552,44.0662115 39.0193347,44.2302073 39.0193347,44.4249999 C39.0193347,44.573959 39.0744774,44.6949864 39.1847644,44.7880859 C39.2950514,44.8811853 39.4805314,44.9649735 39.7412098,45.0394531 L40.1279285,45.1468749 L40.4072254,45.2285156 C40.7968107,45.3402349 41.0395817,45.4190101 41.1355457,45.4648437 C41.2315098,45.5106773 41.3281885,45.5694006 41.4255848,45.6410156 C41.5602209,45.7441411 41.6597642,45.8687492 41.7242176,46.0148437 C41.7886711,46.1609382 41.8208973,46.3313792 41.8208973,46.5261718 C41.8208973,46.9787783 41.6583338,47.3597641 41.333202,47.6691406 C41.0080701,47.9785172 40.5332702,48.1332031 39.9087879,48.1332031 C39.5134734,48.1332031 39.1854819,48.0744798 38.9248035,47.9570312 C38.6641251,47.8395827 38.4564449,47.6770193 38.3017566,47.4693359 C38.1470683,47.2616526 38.0697254,47.0217461 38.0697254,46.7496093 L38.0697254,46.7324218 Z M43.6470692,48 L42.8478505,48 L42.8478505,41.0648436 L43.6470692,41.0648436 L43.6470692,48 Z M46.4787099,47.79375 L44.4162099,43.2003905 L45.3013661,43.2003905 L46.9083974,46.7667968 L48.4123037,43.2003905 L49.2158193,43.2003905 L47.1919912,48.0042969 C46.9198544,48.651696 46.6921223,49.080663 46.508788,49.291211 C46.3254538,49.5017589 46.1313802,49.6499996 45.9265615,49.7359375 C45.7217427,49.8218755 45.4488939,49.8648438 45.1080068,49.8648438 L44.5064442,49.8648438 L44.5064442,49.1988282 L44.9576161,49.1988282 C45.1781901,49.1988282 45.3715476,49.1694665 45.5376943,49.1107422 C45.7038409,49.052018 45.8420557,48.9582038 45.9523427,48.8292969 C46.0626297,48.70039 46.2108704,48.4167991 46.3970693,47.9785156 L46.4787099,47.79375 Z M52.7177725,46.5003906 L53.5857413,46.5003906 L53.5857413,46.5433593 C53.5857413,46.9128924 53.7160786,47.1699862 53.9767569,47.3146484 C54.2374353,47.4593106 54.5840465,47.5316406 55.0166007,47.5316406 C55.3947276,47.5316406 55.7119771,47.4213553 55.9683586,47.2007812 C56.22474,46.9802072 56.3529289,46.6894549 56.3529289,46.3285156 C56.3529289,46.0363266 56.2426435,45.7971363 56.0220695,45.6109374 C55.8014955,45.4276032 55.4663426,45.2442717 55.0166007,45.0609374 L54.6685538,44.9191406 C54.1958952,44.7243479 53.8428388,44.5317066 53.6093741,44.3412109 C53.3759094,44.1507151 53.2018877,43.9394542 53.0873038,43.7074218 C52.9727199,43.4753894 52.9154288,43.2161472 52.9154288,42.9296874 C52.9154288,42.4255182 53.0937473,42.0001318 53.4503897,41.6535155 C53.8070322,41.3068992 54.3649042,41.1335936 55.1240226,41.1335936 C55.8201198,41.1335936 56.3099587,41.2624986 56.5935539,41.5203124 C56.8771491,41.7781262 57.0189445,42.0789044 57.0189445,42.4226561 L57.0189445,42.4656249 L56.1509757,42.4656249 L56.1509757,42.4226561 C56.1509757,42.3138014 56.1072913,42.2063806 56.0199211,42.1003905 C55.9325508,41.9944004 55.8014974,41.9177735 55.626757,41.8705077 C55.4520165,41.8232418 55.2600914,41.7996092 55.0509757,41.7996092 C54.6241507,41.7996092 54.3083335,41.9063139 54.1035148,42.1197264 C53.898696,42.333139 53.7962882,42.57591 53.7962882,42.8480468 C53.7962882,43.031381 53.8449856,43.2039704 53.9423819,43.3658202 C54.0397783,43.52767 54.1736962,43.6615879 54.3441398,43.767578 C54.5145833,43.8735681 54.8017549,44.0153636 55.2056632,44.1929687 L55.6138664,44.3691405 C56.2669946,44.6527357 56.7038392,44.9506494 56.9244133,45.2628906 C57.1421227,45.5751317 57.2509758,45.9117169 57.2509758,46.2726562 C57.2509758,46.6078141 57.1621746,46.932225 56.9845695,47.2458984 C56.8069645,47.5595719 56.5606127,47.7973299 56.245507,47.9591797 C55.9304012,48.1210295 55.510744,48.2019531 54.9865226,48.2019531 C54.4880826,48.2019531 54.072006,48.1425136 53.7382804,48.0236328 C53.4045547,47.904752 53.1510416,47.7092461 52.9777335,47.4371094 C52.8044253,47.1649726 52.7177725,46.8670589 52.7177725,46.5433593 L52.7177725,46.5003906 Z M59.0126946,48 L58.2134758,48 L58.2134758,41.0648436 L59.0126946,41.0648436 L59.0126946,44.0296874 C59.1817058,43.769009 59.3457016,43.5756516 59.5046868,43.4496093 C59.6636719,43.323567 59.8298161,43.2283205 60.0031243,43.1638671 C60.1764324,43.0994136 60.3690737,43.0671874 60.581054,43.0671874 C60.8818367,43.0671874 61.151821,43.1287753 61.3910149,43.251953 C61.6302088,43.3751307 61.8156887,43.5563138 61.9474602,43.7955077 C62.0792317,44.0347016 62.1451165,44.4178358 62.1451165,44.9449218 L62.1451165,48 L61.3458977,48 L61.3458977,45.2886718 C61.3458977,44.8589822 61.3172522,44.5546232 61.2599602,44.3755859 C61.2026683,44.1965485 61.0938152,44.0561853 60.9333977,43.9544921 C60.7729802,43.8527989 60.5896487,43.801953 60.3833977,43.801953 C60.1485007,43.801953 59.9250654,43.8707023 59.7130852,44.008203 C59.501105,44.1457037 59.3313801,44.3376289 59.2039055,44.5839843 C59.0764309,44.8303397 59.0126946,45.1826799 59.0126946,45.6410156 L59.0126946,48 Z M65.3849603,48.1332031 C64.7576134,48.1332031 64.2226578,47.9205099 63.7800775,47.4951172 C63.3374971,47.0697244 63.1162103,46.437374 63.1162103,45.5980468 C63.1162103,44.7615843 63.3374971,44.1306661 63.7800775,43.7052733 C64.2226578,43.2798806 64.7576134,43.0671874 65.3849603,43.0671874 C66.0094426,43.0671874 66.5429659,43.2798806 66.9855463,43.7052733 C67.4281266,44.1306661 67.6494135,44.7615843 67.6494135,45.5980468 C67.6494135,46.437374 67.4281266,47.0697244 66.9855463,47.4951172 C66.5429659,47.9205099 66.0094426,48.1332031 65.3849603,48.1332031 L65.3849603,48.1332031 Z M65.3849603,47.4671875 C65.81465,47.4671875 66.160545,47.2960303 66.4226557,46.9537109 C66.6847663,46.6113915 66.8158197,46.159508 66.8158197,45.5980468 C66.8158197,45.0394503 66.6847663,44.588999 66.4226557,44.2466796 C66.160545,43.9043602 65.81465,43.733203 65.3849603,43.733203 C64.9524061,43.733203 64.6050788,43.9043602 64.3429681,44.2466796 C64.0808574,44.588999 63.949804,45.0394503 63.949804,45.5980468 C63.949804,46.159508 64.0808574,46.6113915 64.3429681,46.9537109 C64.6050788,47.2960303 64.9524061,47.4671875 65.3849603,47.4671875 L65.3849603,47.4671875 Z M69.4798823,48 L68.6806635,48 L68.6806635,43.2003905 L69.4798823,43.2003905 L69.4798823,44.0468749 C69.6116538,43.8033841 69.7555977,43.6143235 69.9117182,43.4796874 C70.0678388,43.3450513 70.233983,43.2426435 70.4101557,43.1724608 C70.5863285,43.1022782 70.7660793,43.0671874 70.9494136,43.0671874 C71.1155602,43.0671874 71.258788,43.0915361 71.3791011,43.1402343 L71.3791011,43.9695312 C71.1900376,43.877864 70.9895188,43.8320312 70.7775386,43.8320312 C70.4767558,43.8320312 70.1852874,43.9638007 69.9031245,44.2273437 C69.6209616,44.4908867 69.4798823,44.9578091 69.4798823,45.6281249 L69.4798823,48 Z M75.0142574,47.3210937 L75.0142574,47.9914062 C74.6246721,48.085938 74.3267584,48.1332031 74.1205074,48.1332031 C73.8225892,48.1332031 73.5540372,48.0730475 73.3148433,47.9527344 C73.0756494,47.8324213 72.8937502,47.6576834 72.7691402,47.4285156 C72.6445302,47.1993478 72.5822261,46.8341171 72.5822261,46.3328125 L72.5822261,43.8664062 L71.7486323,43.8664062 L71.7486323,43.2003905 L72.5822261,43.2003905 L72.5822261,42.0660155 L73.3814449,42.0660155 L73.3814449,43.2003905 L74.7822261,43.2003905 L74.7822261,43.8664062 L73.3814449,43.8664062 L73.3814449,46.1050781 C73.3814449,46.5290385 73.4143872,46.8233715 73.480273,46.9880859 C73.5461587,47.1528003 73.6499988,47.2738277 73.7917964,47.3511719 C73.933594,47.428516 74.1033189,47.4671875 74.3009761,47.4671875 C74.458529,47.4671875 74.6962871,47.4184901 75.0142574,47.3210937 L75.0142574,47.3210937 Z M78.8169919,41.3312499 L79.6849606,41.3312499 L79.6849606,45.6195312 C79.6849606,46.2440135 79.7458324,46.6629546 79.8675778,46.8763672 C79.9893232,47.0897797 80.1791,47.2523432 80.4369138,47.3640625 C80.6947276,47.4757818 80.9826153,47.5316406 81.3005857,47.5316406 C81.6070976,47.5316406 81.8785142,47.4757818 82.1148435,47.3640625 C82.3511728,47.2523432 82.5273429,47.0754569 82.6433591,46.8333984 C82.7593753,46.5913399 82.8173826,46.0850299 82.8173826,45.3144531 L82.8173826,41.3312499 L83.6166013,41.3312499 L83.6166013,45.5378906 C83.6166013,46.3170612 83.527084,46.8641911 83.3480466,47.1792969 C83.1690093,47.4944026 82.9104832,47.7436189 82.5724607,47.9269531 C82.2344382,48.1102874 81.8090518,48.2019531 81.2962888,48.2019531 C80.8207656,48.2019531 80.3853532,48.128907 79.9900388,47.9828125 C79.5947243,47.836718 79.3003913,47.6097021 79.1070309,47.3017578 C78.9136706,46.9938135 78.8169919,46.4717484 78.8169919,45.7355468 L78.8169919,41.3312499 Z M85.6490233,48 L84.7810545,48 L84.7810545,41.3312499 L86.8435545,41.3312499 C87.3505883,41.3312499 87.7315741,41.404296 87.9865233,41.5503905 C88.2414725,41.696485 88.4434236,41.9077459 88.5923827,42.1841796 C88.7413418,42.4606132 88.8158202,42.7606754 88.8158202,43.0843749 C88.8158202,43.3450533 88.7656905,43.5949857 88.6654296,43.8341796 C88.5651687,44.0733735 88.4240893,44.2896474 88.2421874,44.4830077 C88.0602854,44.6763681 87.7788429,44.8489575 87.3978514,45.0007812 C87.5410813,45.0809899 87.6485021,45.1569006 87.7201171,45.2285156 C87.791732,45.3001305 87.8791009,45.416145 87.9822264,45.5765624 C88.0853519,45.7369799 88.1755854,45.887369 88.2529296,46.0277343 L89.3142577,48 L88.3216796,48 L87.3978514,46.246875 C87.1744128,45.8229145 86.8836605,45.4519547 86.5255858,45.1339843 L85.6490233,45.1339843 L85.6490233,48 Z M85.6490233,44.4679687 L86.4955076,44.4679687 C86.8535824,44.4679687 87.1249989,44.412826 87.3097655,44.302539 C87.494532,44.192252 87.6413405,44.0318369 87.7501952,43.821289 C87.8590499,43.610741 87.9134764,43.3851574 87.9134764,43.1445311 C87.9134764,42.9354155 87.8705081,42.7485033 87.7845702,42.5837889 C87.6986322,42.4190746 87.5725918,42.2808598 87.4064452,42.1691405 C87.2402985,42.0574212 86.9581399,42.0015624 86.5599608,42.0015624 L85.6490233,42.0015624 L85.6490233,44.4679687 Z M90.1134765,48 L90.1134765,41.3312499 L90.9814452,41.3312499 L90.9814452,47.2652344 L94.4791016,47.2652344 L94.4791016,48 L90.1134765,48 Z M94.9517578,46.7324218 L95.7509766,46.7324218 L95.7509766,46.7496093 C95.7509766,46.9558604 95.8297519,47.1270175 95.9873047,47.2630859 C96.1448576,47.3991543 96.4112612,47.4671875 96.7865235,47.4671875 C97.1159522,47.4671875 97.383072,47.38698 97.5878907,47.2265625 C97.7927094,47.066145 97.8951173,46.8770844 97.8951173,46.659375 C97.8951173,46.3643214 97.6945984,46.1552089 97.2935548,46.0320312 L96.8853516,45.9074218 L96.6146485,45.8214843 L96.0603516,45.6496093 C95.4272755,45.4175769 95.1107422,45.0322943 95.1107422,44.4937499 C95.1107422,44.115623 95.2639959,43.7833347 95.5705078,43.4968749 C95.8770198,43.2104151 96.332484,43.0671874 96.9369141,43.0671874 C97.5327505,43.0671874 97.9567046,43.1896471 98.2087892,43.4345702 C98.4608738,43.6794933 98.5869142,43.9509099 98.5869142,44.248828 L98.5869142,44.2660155 L97.7833985,44.2660155 L97.7833985,44.248828 C97.7833985,44.0884106 97.7024748,43.9623702 97.5406251,43.870703 C97.3787753,43.7790359 97.1632176,43.733203 96.8939454,43.733203 C96.5731104,43.733203 96.3274749,43.7998039 96.1570313,43.9330077 C95.9865877,44.0662115 95.9013672,44.2302073 95.9013672,44.4249999 C95.9013672,44.573959 95.9565099,44.6949864 96.0667969,44.7880859 C96.1770839,44.8811853 96.3625639,44.9649735 96.6232422,45.0394531 L97.009961,45.1468749 L97.2892579,45.2285156 C97.6788432,45.3402349 97.9216142,45.4190101 98.0175782,45.4648437 C98.1135422,45.5106773 98.210221,45.5694006 98.3076173,45.6410156 C98.4422534,45.7441411 98.5417967,45.8687492 98.6062501,46.0148437 C98.6707035,46.1609382 98.7029298,46.3313792 98.7029298,46.5261718 C98.7029298,46.9787783 98.5403663,47.3597641 98.2152345,47.6691406 C97.8901026,47.9785172 97.4153027,48.1332031 96.7908204,48.1332031 C96.3955059,48.1332031 96.0675144,48.0744798 95.806836,47.9570312 C95.5461576,47.8395827 95.3384774,47.6770193 95.1837891,47.4693359 C95.0291008,47.2616526 94.9517578,47.0217461 94.9517578,46.7496093 L94.9517578,46.7324218 Z M103.897852,48 L103.098633,48 L103.098633,43.8664062 L102.398242,43.8664062 L102.398242,43.2003905 L103.098633,43.2003905 L103.098633,42.976953 C103.098633,42.2808558 103.245441,41.7881524 103.539063,41.498828 C103.832684,41.2095036 104.215818,41.0648436 104.688477,41.0648436 C104.866082,41.0648436 105.090949,41.0848955 105.363086,41.1249999 L105.363086,41.7781249 C105.139648,41.7494789 104.960613,41.7351561 104.825977,41.7351561 C104.568163,41.7351561 104.349025,41.7981763 104.168555,41.9242186 C103.988085,42.0502609 103.897852,42.3510392 103.897852,42.8265624 L103.897852,43.2003905 L105.298633,43.2003905 L105.298633,43.8664062 L103.897852,43.8664062 L103.897852,48 Z M108.134571,48.1332031 C107.507224,48.1332031 106.972268,47.9205099 106.529688,47.4951172 C106.087107,47.0697244 105.865821,46.437374 105.865821,45.5980468 C105.865821,44.7615843 106.087107,44.1306661 106.529688,43.7052733 C106.972268,43.2798806 107.507224,43.0671874 108.134571,43.0671874 C108.759053,43.0671874 109.292576,43.2798806 109.735157,43.7052733 C110.177737,44.1306661 110.399024,44.7615843 110.399024,45.5980468 C110.399024,46.437374 110.177737,47.0697244 109.735157,47.4951172 C109.292576,47.9205099 108.759053,48.1332031 108.134571,48.1332031 L108.134571,48.1332031 Z M108.134571,47.4671875 C108.56426,47.4671875 108.910155,47.2960303 109.172266,46.9537109 C109.434377,46.6113915 109.56543,46.159508 109.56543,45.5980468 C109.56543,45.0394503 109.434377,44.588999 109.172266,44.2466796 C108.910155,43.9043602 108.56426,43.733203 108.134571,43.733203 C107.702016,43.733203 107.354689,43.9043602 107.092578,44.2466796 C106.830468,44.588999 106.699414,45.0394503 106.699414,45.5980468 C106.699414,46.159508 106.830468,46.6113915 107.092578,46.9537109 C107.354689,47.2960303 107.702016,47.4671875 108.134571,47.4671875 L108.134571,47.4671875 Z M112.229493,48 L111.430274,48 L111.430274,43.2003905 L112.229493,43.2003905 L112.229493,44.0468749 C112.361264,43.8033841 112.505208,43.6143235 112.661329,43.4796874 C112.817449,43.3450513 112.983593,43.2426435 113.159766,43.1724608 C113.335939,43.1022782 113.51569,43.0671874 113.699024,43.0671874 C113.865171,43.0671874 114.008398,43.0915361 114.128711,43.1402343 L114.128711,43.9695312 C113.939648,43.877864 113.739129,43.8320312 113.527149,43.8320312 C113.226366,43.8320312 112.934898,43.9638007 112.652735,44.2273437 C112.370572,44.4908867 112.229493,44.9578091 112.229493,45.6281249 L112.229493,48 Z M120.698633,47.3210937 L120.698633,47.9914062 C120.309048,48.085938 120.011134,48.1332031 119.804883,48.1332031 C119.506965,48.1332031 119.238413,48.0730475 118.999219,47.9527344 C118.760025,47.8324213 118.578126,47.6576834 118.453516,47.4285156 C118.328906,47.1993478 118.266602,46.8341171 118.266602,46.3328125 L118.266602,43.8664062 L117.433008,43.8664062 L117.433008,43.2003905 L118.266602,43.2003905 L118.266602,42.0660155 L119.065821,42.0660155 L119.065821,43.2003905 L120.466602,43.2003905 L120.466602,43.8664062 L119.065821,43.8664062 L119.065821,46.1050781 C119.065821,46.5290385 119.098763,46.8233715 119.164649,46.9880859 C119.230535,47.1528003 119.334375,47.2738277 119.476172,47.3511719 C119.61797,47.428516 119.787695,47.4671875 119.985352,47.4671875 C120.142905,47.4671875 120.380663,47.4184901 120.698633,47.3210937 L120.698633,47.3210937 Z M122.464649,48 L121.66543,48 L121.66543,41.0648436 L122.464649,41.0648436 L122.464649,44.0296874 C122.63366,43.769009 122.797656,43.5756516 122.956641,43.4496093 C123.115626,43.323567 123.281771,43.2283205 123.455079,43.1638671 C123.628387,43.0994136 123.821028,43.0671874 124.033008,43.0671874 C124.333791,43.0671874 124.603776,43.1287753 124.842969,43.251953 C125.082163,43.3751307 125.267643,43.5563138 125.399415,43.7955077 C125.531186,44.0347016 125.597071,44.4178358 125.597071,44.9449218 L125.597071,48 L124.797852,48 L124.797852,45.2886718 C124.797852,44.8589822 124.769207,44.5546232 124.711915,44.3755859 C124.654623,44.1965485 124.54577,44.0561853 124.385352,43.9544921 C124.224935,43.8527989 124.041603,43.801953 123.835352,43.801953 C123.600455,43.801953 123.37702,43.8707023 123.16504,44.008203 C122.953059,44.1457037 122.783335,44.3376289 122.65586,44.5839843 C122.528385,44.8303397 122.464649,45.1826799 122.464649,45.6410156 L122.464649,48 Z M129.936915,46.7667968 L130.736134,46.7667968 L130.736134,46.8097656 C130.736134,47.0217458 130.651629,47.2380197 130.482618,47.4585937 C130.313607,47.6791678 130.090171,47.8467442 129.812305,47.9613281 C129.534439,48.075912 129.215042,48.1332031 128.854102,48.1332031 C128.12363,48.1332031 127.560029,47.8968774 127.163282,47.4242187 C126.766535,46.9515601 126.568165,46.3543004 126.568165,45.6324218 C126.568165,44.8933556 126.777993,44.281057 127.197657,43.7955077 C127.617321,43.3099584 128.158005,43.0671874 128.819727,43.0671874 C129.183531,43.0671874 129.512955,43.1459626 129.808009,43.3035155 C130.103062,43.4610684 130.336523,43.706704 130.508399,44.0404296 C130.680275,44.3741552 130.766212,44.8389292 130.766212,45.4347656 L130.766212,45.7011718 L127.35879,45.7011718 C127.35879,46.2139348 127.497005,46.6364566 127.773438,46.96875 C128.049872,47.3010433 128.433006,47.4671875 128.922852,47.4671875 C129.275198,47.4671875 129.532292,47.3991543 129.694141,47.2630859 C129.855991,47.1270175 129.936915,46.9759123 129.936915,46.8097656 L129.936915,46.7667968 Z M127.410352,45.0996093 L130.001368,45.0996093 L130.001368,45.0050781 C130.001368,44.7816394 129.947658,44.5646494 129.840235,44.3541015 C129.732813,44.1435536 129.584572,43.9874353 129.395509,43.8857421 C129.206445,43.7840489 128.985874,43.733203 128.73379,43.733203 C128.435872,43.733203 128.160874,43.8527982 127.90879,44.0919921 C127.656705,44.331186 127.490561,44.6670551 127.410352,45.0996093 L127.410352,45.0996093 Z M134.702149,41.3312499 L135.570118,41.3312499 L135.570118,45.6195312 C135.570118,46.2440135 135.63099,46.6629546 135.752735,46.8763672 C135.874481,47.0897797 136.064257,47.2523432 136.322071,47.3640625 C136.579885,47.4757818 136.867773,47.5316406 137.185743,47.5316406 C137.492255,47.5316406 137.763672,47.4757818 138.000001,47.3640625 C138.23633,47.2523432 138.4125,47.0754569 138.528517,46.8333984 C138.644533,46.5913399 138.70254,46.0850299 138.70254,45.3144531 L138.70254,41.3312499 L139.501759,41.3312499 L139.501759,45.5378906 C139.501759,46.3170612 139.412241,46.8641911 139.233204,47.1792969 C139.054167,47.4944026 138.795641,47.7436189 138.457618,47.9269531 C138.119596,48.1102874 137.694209,48.2019531 137.181446,48.2019531 C136.705923,48.2019531 136.270511,48.128907 135.875196,47.9828125 C135.479882,47.836718 135.185549,47.6097021 134.992188,47.3017578 C134.798828,46.9938135 134.702149,46.4717484 134.702149,45.7355468 L134.702149,41.3312499 Z M141.465431,48 L140.666212,48 L140.666212,43.2003905 L141.465431,43.2003905 L141.465431,44.0296874 C141.634442,43.769009 141.798438,43.5756516 141.957423,43.4496093 C142.116408,43.323567 142.282552,43.2283205 142.45586,43.1638671 C142.629169,43.0994136 142.82181,43.0671874 143.03379,43.0671874 C143.334573,43.0671874 143.604557,43.1287753 143.843751,43.251953 C144.082945,43.3751307 144.268425,43.5563138 144.400196,43.7955077 C144.531968,44.0347016 144.597853,44.4178358 144.597853,44.9449218 L144.597853,48 L143.798634,48 L143.798634,45.2886718 C143.798634,44.8589822 143.769988,44.5546232 143.712696,44.3755859 C143.655404,44.1965485 143.543687,44.0561853 143.37754,43.9544921 C143.211393,43.8527989 143.030927,43.801953 142.836134,43.801953 C142.601237,43.801953 142.377802,43.8707023 142.165821,44.008203 C141.953841,44.1457037 141.784116,44.3376289 141.656642,44.5839843 C141.529167,44.8303397 141.465431,45.1826799 141.465431,45.6410156 L141.465431,48 Z M145.800978,43.2003905 L146.600196,43.2003905 L146.600196,48 L145.800978,48 L145.800978,43.2003905 Z M145.800978,42.1347655 L145.800978,41.3312499 L146.600196,41.3312499 L146.600196,42.1347655 L145.800978,42.1347655 Z M150.866993,46.7667968 L151.670509,46.7667968 L151.670509,46.8097656 C151.670509,47.0246104 151.589585,47.2408843 151.427736,47.4585937 C151.265886,47.6763032 151.053909,47.8431635 150.791798,47.9591797 C150.529687,48.0751959 150.21387,48.1332031 149.844337,48.1332031 C149.136782,48.1332031 148.5918,47.9090517 148.209376,47.4607422 C147.826952,47.0124326 147.635743,46.3915404 147.635743,45.5980468 C147.635743,44.8074179 147.826952,44.1879579 148.209376,43.7396483 C148.5918,43.2913388 149.136782,43.0671874 149.844337,43.0671874 C150.21387,43.0671874 150.529687,43.1251946 150.791798,43.2412108 C151.053909,43.357227 151.265886,43.5162098 151.427736,43.718164 C151.589585,43.9201181 151.670509,44.1442695 151.670509,44.3906249 L151.670509,44.4335937 L150.866993,44.4335937 L150.866993,44.3906249 C150.875587,44.2158845 150.79896,44.0626308 150.637111,43.9308593 C150.475261,43.7990878 150.225328,43.733203 149.887306,43.733203 C149.486262,43.733203 149.149677,43.8807276 148.87754,44.1757812 C148.605403,44.4708347 148.469337,44.9449185 148.469337,45.5980468 C148.469337,46.2540397 148.605403,46.7295558 148.87754,47.0246094 C149.149677,47.3196629 149.486262,47.4671875 149.887306,47.4671875 C150.225328,47.4671875 150.473112,47.4013027 150.630665,47.2695312 C150.788218,47.1377597 150.866993,46.9845061 150.866993,46.8097656 L150.866993,46.7667968 Z M154.704103,48.1332031 C154.076756,48.1332031 153.5418,47.9205099 153.09922,47.4951172 C152.65664,47.0697244 152.435353,46.437374 152.435353,45.5980468 C152.435353,44.7615843 152.65664,44.1306661 153.09922,43.7052733 C153.5418,43.2798806 154.076756,43.0671874 154.704103,43.0671874 C155.328585,43.0671874 155.862109,43.2798806 156.304689,43.7052733 C156.747269,44.1306661 156.968556,44.7615843 156.968556,45.5980468 C156.968556,46.437374 156.747269,47.0697244 156.304689,47.4951172 C155.862109,47.9205099 155.328585,48.1332031 154.704103,48.1332031 L154.704103,48.1332031 Z M154.704103,47.4671875 C155.133793,47.4671875 155.479688,47.2960303 155.741798,46.9537109 C156.003909,46.6113915 156.134962,46.159508 156.134962,45.5980468 C156.134962,45.0394503 156.003909,44.588999 155.741798,44.2466796 C155.479688,43.9043602 155.133793,43.733203 154.704103,43.733203 C154.271549,43.733203 153.924221,43.9043602 153.662111,44.2466796 C153.4,44.588999 153.268947,45.0394503 153.268947,45.5980468 C153.268947,46.159508 153.4,46.6113915 153.662111,46.9537109 C153.924221,47.2960303 154.271549,47.4671875 154.704103,47.4671875 L154.704103,47.4671875 Z M161.299806,41.0648436 L162.099025,41.0648436 L162.099025,48 L161.299806,48 L161.299806,47.1664062 C161.136524,47.4757828 160.977541,47.6906244 160.822853,47.8109375 C160.668165,47.9312506 160.494143,48.0150388 160.300783,48.0623047 C160.107422,48.1095706 159.916213,48.1332031 159.72715,48.1332031 C159.366211,48.1332031 159.033922,48.0336599 158.730275,47.8345703 C158.426627,47.6354808 158.190302,47.3382832 158.02129,46.9429687 C157.852279,46.5476542 157.767775,46.1036483 157.767775,45.6109374 C157.767775,44.880465 157.943945,44.2738956 158.29629,43.7912108 C158.648636,43.3085261 159.139907,43.0671874 159.770119,43.0671874 C159.97637,43.0671874 160.169727,43.0965491 160.350197,43.1552733 C160.530666,43.2139976 160.691798,43.3013665 160.833595,43.4173827 C160.975393,43.5333989 161.130795,43.740363 161.299806,44.0382812 L161.299806,41.0648436 Z M161.299806,45.5980468 C161.299806,45.0537733 161.182359,44.6069027 160.947462,44.2574218 C160.712565,43.9079409 160.383142,43.733203 159.959181,43.733203 C159.569596,43.733203 159.245901,43.887889 158.988087,44.1972655 C158.730274,44.5066421 158.601369,44.9692677 158.601369,45.5851562 C158.601369,46.3041702 158.725977,46.8033189 158.975197,47.0826172 C159.224417,47.3619154 159.545247,47.5015625 159.937697,47.5015625 C160.192646,47.5015625 160.429688,47.4242195 160.64883,47.2695312 C160.867971,47.114843 161.031251,46.8871109 161.138673,46.5863281 C161.246096,46.2855453 161.299806,45.9561215 161.299806,45.5980468 L161.299806,45.5980468 Z M166.434572,46.7667968 L167.233791,46.7667968 L167.233791,46.8097656 C167.233791,47.0217458 167.149286,47.2380197 166.980275,47.4585937 C166.811264,47.6791678 166.587828,47.8467442 166.309963,47.9613281 C166.032097,48.075912 165.712699,48.1332031 165.351759,48.1332031 C164.621287,48.1332031 164.057686,47.8968774 163.660939,47.4242187 C163.264192,46.9515601 163.065822,46.3543004 163.065822,45.6324218 C163.065822,44.8933556 163.27565,44.281057 163.695314,43.7955077 C164.114978,43.3099584 164.655662,43.0671874 165.317384,43.0671874 C165.681188,43.0671874 166.010612,43.1459626 166.305666,43.3035155 C166.600719,43.4610684 166.83418,43.706704 167.006056,44.0404296 C167.177932,44.3741552 167.263869,44.8389292 167.263869,45.4347656 L167.263869,45.7011718 L163.856447,45.7011718 C163.856447,46.2139348 163.994662,46.6364566 164.271095,46.96875 C164.547529,47.3010433 164.930663,47.4671875 165.420509,47.4671875 C165.772855,47.4671875 166.029949,47.3991543 166.191798,47.2630859 C166.353648,47.1270175 166.434572,46.9759123 166.434572,46.8097656 L166.434572,46.7667968 Z M163.908009,45.0996093 L166.499025,45.0996093 L166.499025,45.0050781 C166.499025,44.7816394 166.445315,44.5646494 166.337892,44.3541015 C166.23047,44.1435536 166.082229,43.9874353 165.893166,43.8857421 C165.704102,43.7840489 165.483531,43.733203 165.231447,43.733203 C164.933529,43.733203 164.658531,43.8527982 164.406447,44.0919921 C164.154362,44.331186 163.988218,44.6670551 163.908009,45.0996093 L163.908009,45.0996093 Z M171.603713,48 L170.800197,48 L173.53301,41.3312499 L174.409572,41.3312499 L176.931838,48 L175.995119,48 L175.303322,46.1652343 L172.359963,46.1652343 L171.603713,48 Z M172.622072,45.4992187 L175.04551,45.4992187 L173.87676,42.4011718 L172.622072,45.4992187 Z M180.996682,46.9859375 C180.8334,47.32396 180.621422,47.5774731 180.360744,47.7464844 C180.100066,47.9154956 179.790694,48 179.432619,48 C178.862564,48 178.392061,47.7758486 178.021096,47.327539 C177.65013,46.8792295 177.46465,46.2898474 177.46465,45.5593749 C177.46465,45.0781225 177.547722,44.6398457 177.713869,44.2445312 C177.880016,43.8492167 178.113477,43.5541675 178.41426,43.3593749 C178.715042,43.1645823 179.067383,43.0671874 179.471291,43.0671874 C179.772074,43.0671874 180.041342,43.1266269 180.279103,43.2455077 C180.516865,43.3643885 180.756055,43.6057273 180.996682,43.9695312 L180.996682,43.2003905 L181.7959,43.2003905 L181.7959,47.1234375 C181.7959,48.1088591 181.692776,48.759113 181.486525,49.0742188 C181.280274,49.3893245 181.018884,49.6227857 180.702346,49.7746094 C180.385808,49.9264331 180.014132,50.0023438 179.587307,50.0023438 C179.191992,50.0023438 178.837503,49.9436204 178.52383,49.8261719 C178.210157,49.7087234 177.971682,49.5475922 177.8084,49.3427735 C177.645118,49.1379547 177.563478,48.9252615 177.563478,48.7046875 L177.563478,48.6316406 L178.362697,48.6316406 L178.362697,48.7003906 C178.362697,48.9123709 178.477279,49.0820957 178.706447,49.2095703 C178.935615,49.3370449 179.226367,49.4007813 179.578713,49.4007813 C179.865173,49.4007813 180.110808,49.3513677 180.315627,49.2525391 C180.520446,49.1537105 180.685158,48.9932954 180.809768,48.7712891 C180.934378,48.5492828 180.996682,48.1460967 180.996682,47.5617187 L180.996682,46.9859375 Z M180.996682,45.4562499 C180.996682,44.943487 180.864912,44.5281265 180.601369,44.2101562 C180.337826,43.8921858 180.022725,43.733203 179.656057,43.733203 C179.266471,43.733203 178.942777,43.8936181 178.684963,44.214453 C178.427149,44.535288 178.298244,44.9864554 178.298244,45.5679687 C178.298244,45.9346372 178.349806,46.2554673 178.452932,46.5304687 C178.556057,46.8054701 178.717188,47.0138665 178.93633,47.155664 C179.155472,47.2974616 179.389649,47.3683594 179.638869,47.3683594 C180.042777,47.3683594 180.370053,47.1900408 180.620705,46.8333984 C180.871357,46.476756 180.996682,46.0177111 180.996682,45.4562499 L180.996682,45.4562499 Z M186.200197,46.7667968 L186.999416,46.7667968 L186.999416,46.8097656 C186.999416,47.0217458 186.914912,47.2380197 186.7459,47.4585937 C186.576889,47.6791678 186.353454,47.8467442 186.075588,47.9613281 C185.797722,48.075912 185.478324,48.1332031 185.117385,48.1332031 C184.386912,48.1332031 183.823311,47.8968774 183.426564,47.4242187 C183.029818,46.9515601 182.831447,46.3543004 182.831447,45.6324218 C182.831447,44.8933556 183.041276,44.281057 183.460939,43.7955077 C183.880603,43.3099584 184.421288,43.0671874 185.08301,43.0671874 C185.446814,43.0671874 185.776237,43.1459626 186.071291,43.3035155 C186.366345,43.4610684 186.599806,43.706704 186.771682,44.0404296 C186.943558,44.3741552 187.029494,44.8389292 187.029494,45.4347656 L187.029494,45.7011718 L183.622072,45.7011718 C183.622072,46.2139348 183.760287,46.6364566 184.036721,46.96875 C184.313154,47.3010433 184.696289,47.4671875 185.186135,47.4671875 C185.53848,47.4671875 185.795574,47.3991543 185.957424,47.2630859 C186.119274,47.1270175 186.200197,46.9759123 186.200197,46.8097656 L186.200197,46.7667968 Z M183.673635,45.0996093 L186.26465,45.0996093 L186.26465,45.0050781 C186.26465,44.7816394 186.21094,44.5646494 186.103518,44.3541015 C185.996095,44.1435536 185.847854,43.9874353 185.658791,43.8857421 C185.469728,43.7840489 185.249157,43.733203 184.997072,43.733203 C184.699154,43.733203 184.424157,43.8527982 184.172072,44.0919921 C183.919988,44.331186 183.753843,44.6670551 183.673635,45.0996093 L183.673635,45.0996093 Z" id="Ridiculously-Short-U" fill="#262626" sketch:type="MSShapeGroup"></path>
    </g>
</svg>